<?xml version="1.0" encoding="UTF-8" standalone="no"?>
<!-- Created with Inkscape (http://www.inkscape.org/) -->

<svg
   xmlns:dc="http://purl.org/dc/elements/1.1/"
   xmlns:cc="http://creativecommons.org/ns#"
   xmlns:rdf="http://www.w3.org/1999/02/22-rdf-syntax-ns#"
   xmlns:svg="http://www.w3.org/2000/svg"
   xmlns="http://www.w3.org/2000/svg"
   xmlns:xlink="http://www.w3.org/1999/xlink"
   xmlns:sodipodi="http://sodipodi.sourceforge.net/DTD/sodipodi-0.dtd"
   xmlns:inkscape="http://www.inkscape.org/namespaces/inkscape"
   width="500"
   height="500"
   viewBox="0 0 132.29166 132.29167"
   version="1.1"
   id="svg8"
   sodipodi:docname="drawing.svg"
   inkscape:version="0.92.3 (2405546, 2018-03-11)">
  <defs
     id="defs2">
    <pattern
       inkscape:collect="always"
       xlink:href="#Checkerboard"
       id="pattern8873"
       patternTransform="scale(10)" />
    <pattern
       inkscape:isstock="true"
       inkscape:stockid="Checkerboard"
       id="Checkerboard"
       patternTransform="translate(0,0) scale(10,10)"
       height="2"
       width="2"
       patternUnits="userSpaceOnUse"
       inkscape:collect="always">
      <rect
         id="rect7411"
         height="1"
         width="1"
         y="0"
         x="0"
         style="fill:black;stroke:none" />
      <rect
         id="rect7413"
         height="1"
         width="1"
         y="1"
         x="1"
         style="fill:black;stroke:none" />
    </pattern>
    <linearGradient
       inkscape:collect="always"
       id="linearGradient8585">
      <stop
         style="stop-color:#ff5b59;stop-opacity:1;"
         offset="0"
         id="stop8581" />
      <stop
         style="stop-color:#ffdf01;stop-opacity:1"
         offset="1"
         id="stop8583" />
    </linearGradient>
    <linearGradient
       inkscape:collect="always"
       id="linearGradient8571">
      <stop
         style="stop-color:#003c5e;stop-opacity:1;"
         offset="0"
         id="stop8567" />
      <stop
         style="stop-color:#ffffff;stop-opacity:1"
         offset="1"
         id="stop8569" />
    </linearGradient>
    <clipPath
       clipPathUnits="userSpaceOnUse"
       id="clipPath2008">
      <rect
         style="fill:#d81159;fill-opacity:1;stroke:#d81159;stroke-width:0.52916664;stroke-linecap:butt;stroke-linejoin:miter;stroke-miterlimit:4;stroke-dasharray:none;stroke-dashoffset:0;stroke-opacity:1;paint-order:markers fill stroke"
         id="rect2010"
         width="59.868374"
         height="58.799297"
         x="-109.04597"
         y="189.55763" />
    </clipPath>
    <clipPath
       clipPathUnits="userSpaceOnUse"
       id="clipPath5897">
      <rect
         style="fill:#2b1100;fill-opacity:1;stroke:#d81159;stroke-width:0.52916664;stroke-linecap:butt;stroke-linejoin:miter;stroke-miterlimit:4;stroke-dasharray:none;stroke-dashoffset:0;stroke-opacity:1;paint-order:markers fill stroke"
         id="rect5899"
         width="95.415215"
         height="81.784477"
         x="43.56493"
         y="-10.69753" />
    </clipPath>
    <linearGradient
       inkscape:collect="always"
       xlink:href="#linearGradient8571"
       id="linearGradient8573"
       x1="278.4234"
       y1="217.28047"
       x2="301.48557"
       y2="303.78049"
       gradientUnits="userSpaceOnUse" />
    <linearGradient
       inkscape:collect="always"
       xlink:href="#linearGradient8585"
       id="linearGradient8587"
       x1="60.021572"
       y1="41.208851"
       x2="16.801041"
       y2="107.0901"
       gradientUnits="userSpaceOnUse" />
  </defs>
  <sodipodi:namedview
     id="base"
     pagecolor="#ffffff"
     bordercolor="#666666"
     borderopacity="1.0"
     inkscape:pageopacity="0.0"
     inkscape:pageshadow="2"
     inkscape:zoom="1.4142136"
     inkscape:cx="264.31857"
     inkscape:cy="244.10281"
     inkscape:document-units="px"
     inkscape:current-layer="layer15"
     showgrid="false"
     units="px"
     inkscape:snap-nodes="false"
     inkscape:window-width="1920"
     inkscape:window-height="1001"
     inkscape:window-x="-9"
     inkscape:window-y="-9"
     inkscape:window-maximized="1"
     inkscape:pagecheckerboard="true" />
  <metadata
     id="metadata5">
    <rdf:RDF>
      <cc:Work
         rdf:about="">
        <dc:format>image/svg+xml</dc:format>
        <dc:type
           rdf:resource="http://purl.org/dc/dcmitype/StillImage" />
        <dc:title></dc:title>
      </cc:Work>
    </rdf:RDF>
  </metadata>
  <g
     inkscape:groupmode="layer"
     id="layer19"
     inkscape:label="Pattern"
     style="display:inline">
    <path
       style="fill:url(#pattern8873);fill-opacity:1;stroke:#000000;stroke-width:0.26458332px;stroke-linecap:butt;stroke-linejoin:miter;stroke-opacity:1"
       d="m 57.997486,37.43771 c 1.476182,-5.456584 7.508944,-8.07097 11.765234,-11.246053 5.260517,-3.181846 10.013717,-9.772853 15.720552,-8.60286 3.269744,0.430043 3.51014,5.249505 7.364227,2.12571 5.813345,-3.294119 11.146481,-7.418542 17.406711,-9.9114721 3.46213,-2.5797556 10.84718,-4.0169625 8.84523,2.6570871 -2.74443,7.783755 -9.81072,12.844373 -14.57876,19.335372 -4.18106,5.999402 8.28559,1.360736 7.24502,6.63971 -1.14007,5.852004 -6.12558,10.234051 -10.78472,13.542718 -5.270993,4.378468 -11.216266,7.74206 -14.358928,14.084356 60.177548,16.983973 22.771028,27.327266 1.496711,45.649632 -5.012943,3.50245 -10.000643,8.17172 -15.098783,11.63901 -4.827216,1.66104 -9.615189,8.63473 -14.60847,7.08645 -0.998558,-5.06165 6.132307,-13.25322 -3.202343,-13.67406 -7.022068,-0.52081 -13.195733,3.45866 -20.036499,4.30303 -7.064891,1.52186 -14.114563,3.99429 -21.395353,3.85403 -7.8278171,-3.99655 3.388789,-9.4793 6.144624,-13.21592 3.53958,-3.01528 6.427959,-10.80353 -1.195182,-7.44662 -3.639624,0.91325 -13.5342787,3.78523 -9.3071742,-3.1412 4.3710742,-5.310921 10.3956572,-8.86038 15.8373882,-12.977891 3.099524,-6.902143 8.684892,-12.158553 12.179064,-18.8192 4.135573,-5.826834 7.982372,-12.030764 9.179097,-19.216514 1.74836,-5.488954 4.513635,-10.623629 7.266404,-15.658733 2.914252,-2.987124 2.474934,4.956883 4.887501,2.54019 z"
       id="path8829"
       inkscape:connector-curvature="0"
       sodipodi:nodetypes="ccccccccccccccccccccccccc" />
    <path
       style="fill:#fffafa;fill-opacity:1;fill-rule:nonzero;stroke:#fffafa;stroke-width:0.50078738;stroke-linecap:butt;stroke-linejoin:miter;stroke-miterlimit:4;stroke-dasharray:none;stroke-dashoffset:0;stroke-opacity:1;paint-order:markers fill stroke"
       d="m 378.20282,66.858013 0.13709,-8.354912 8,-4.886159 c 7.59777,-4.640495 20.12977,-11.331815 26.375,-14.082642 l 2.875,-1.266347 v 18.472485 18.472486 h -18.76209 -18.76209 z"
       id="path9153"
       inkscape:connector-curvature="0"
       transform="scale(0.26458333)" />
    <path
       style="fill:#fffafa;fill-opacity:1;fill-rule:nonzero;stroke:#fffafa;stroke-width:0.50078738;stroke-linecap:butt;stroke-linejoin:miter;stroke-miterlimit:4;stroke-dasharray:none;stroke-dashoffset:0;stroke-opacity:1;paint-order:markers fill stroke"
       d="m 420.17888,35.724927 c 7.4415,-4.673642 18.19707,-7.101513 24.16103,-5.453904 2.31085,0.638399 5.49139,3.698951 5.86275,5.641565 l 0.24857,1.300336 -16.30566,-0.0095 -16.30566,-0.0095 z"
       id="path9155"
       inkscape:connector-curvature="0"
       transform="scale(0.26458333)" />
    <path
       style="fill:#fffafa;fill-opacity:1;fill-rule:nonzero;stroke:#fffafa;stroke-width:0.17705508;stroke-linecap:butt;stroke-linejoin:miter;stroke-miterlimit:4;stroke-dasharray:none;stroke-dashoffset:0;stroke-opacity:1;paint-order:markers fill stroke"
       d="m 415.82831,85.35084 -0.008,-9.766912 h 8.60107 c 8.1728,0 8.58811,0.0154 8.34079,0.309359 -0.14315,0.170148 -0.97044,1.184404 -1.83843,2.253903 -2.87489,3.542337 -8.5131,9.902457 -14.16738,15.981358 l -0.92011,0.989205 z"
       id="path9157"
       inkscape:connector-curvature="0"
       transform="scale(0.26458333)" />
    <path
       style="fill:#fffafa;fill-opacity:1;fill-rule:nonzero;stroke:#fffafa;stroke-width:0.17705508;stroke-linecap:butt;stroke-linejoin:miter;stroke-miterlimit:4;stroke-dasharray:none;stroke-dashoffset:0;stroke-opacity:1;paint-order:markers fill stroke"
       d="m 418.64877,36.416731 c 4.89489,-3.19967 10.71375,-5.527554 16.35319,-6.542235 2.61195,-0.469956 6.95133,-0.435751 8.8046,0.0694 2.9014,0.790847 4.87269,2.307145 6.01649,4.627836 0.36836,0.747367 0.70104,1.730745 0.76251,2.253903 l 0.10904,0.928077 -17.03938,-0.0041 -17.03938,-0.0041 z"
       id="path9159"
       inkscape:connector-curvature="0"
       transform="scale(0.26458333)" />
    <path
       style="fill:#fffafa;fill-opacity:1;fill-rule:nonzero;stroke:#fffafa;stroke-width:0.17705508;stroke-linecap:butt;stroke-linejoin:miter;stroke-miterlimit:4;stroke-dasharray:none;stroke-dashoffset:0;stroke-opacity:1;paint-order:markers fill stroke"
       d="M 340.15992,95.993627 V 78.749888 l 0.66291,0.133714 c 1.15137,0.232238 3.0057,0.103858 4.23465,-0.293174 1.50069,-0.484822 2.27307,-0.875921 4.05698,-2.05429 l 1.44154,-0.95221 h 13.62868 13.62867 v 18.826718 18.826714 h -18.82671 -18.82672 z"
       id="path9161"
       inkscape:connector-curvature="0"
       transform="scale(0.26458333)" />
    <path
       style="fill:#fffafa;fill-opacity:1;fill-rule:nonzero;stroke:#fffafa;stroke-width:0.17705508;stroke-linecap:butt;stroke-linejoin:miter;stroke-miterlimit:4;stroke-dasharray:none;stroke-dashoffset:0;stroke-opacity:1;paint-order:markers fill stroke"
       d="m 377.99013,132.24086 v -18.82672 h 10.78842 10.78842 l -1.38716,1.72357 c -3.10524,3.85832 -4.60537,6.00903 -5.67269,8.13286 -1.36298,2.71213 -1.62871,4.88806 -0.80004,6.55099 1.28416,2.57698 4.40014,3.66624 12.97633,4.53618 5.46891,0.55475 8.19903,0.9577 10.29724,1.51984 l 0.66292,0.17761 v 7.50619 7.5062 h -18.82672 -18.82672 z"
       id="path9163"
       inkscape:connector-curvature="0"
       transform="scale(0.26458333)" />
    <path
       style="fill:#fffafa;fill-opacity:1;fill-rule:nonzero;stroke:#fffafa;stroke-width:0.17705508;stroke-linecap:butt;stroke-linejoin:miter;stroke-miterlimit:4;stroke-dasharray:none;stroke-dashoffset:0;stroke-opacity:1;paint-order:markers fill stroke"
       d="m 302.50648,132.24086 v -18.82672 h 18.82672 18.82672 v 18.82672 18.82672 H 321.3332 302.50648 Z"
       id="path9169"
       inkscape:connector-curvature="0"
       transform="scale(0.26458333)" />
    <path
       style="fill:#fffafa;fill-opacity:1;fill-rule:nonzero;stroke:#fffafa;stroke-width:0.17705508;stroke-linecap:butt;stroke-linejoin:miter;stroke-miterlimit:4;stroke-dasharray:none;stroke-dashoffset:0;stroke-opacity:1;paint-order:markers fill stroke"
       d="m 302.50648,132.24086 v -18.82672 h 18.82672 18.82672 v 18.82672 18.82672 H 321.3332 302.50648 Z"
       id="path9171"
       inkscape:connector-curvature="0"
       transform="scale(0.26458333)" />
    <path
       style="fill:#fffafa;fill-opacity:1;fill-rule:nonzero;stroke:#fffafa;stroke-width:0.17705508;stroke-linecap:butt;stroke-linejoin:miter;stroke-miterlimit:4;stroke-dasharray:none;stroke-dashoffset:0;stroke-opacity:1;paint-order:markers fill stroke"
       d="m 302.50648,73.222881 v -2.361047 l 1.81196,-0.845394 c 5.61416,-2.619359 9.9346,-3.609626 14.78748,-3.389368 2.71207,0.123093 5.2531,0.579243 6.85681,1.230891 2.24331,0.911535 4.74734,2.87916 7.75124,6.090781 l 1.52942,1.635184 h -16.36845 -16.36846 z"
       id="path9173"
       inkscape:connector-curvature="0"
       transform="scale(0.26458333)" />
    <path
       style="fill:#fffafa;fill-opacity:1;fill-rule:nonzero;stroke:#fffafa;stroke-width:0.17705508;stroke-linecap:butt;stroke-linejoin:miter;stroke-miterlimit:4;stroke-dasharray:none;stroke-dashoffset:0;stroke-opacity:1;paint-order:markers fill stroke"
       d="m 264.68128,106.1221 0.005,-7.11526 0.93346,-0.564552 c 3.12715,-1.891277 8.00611,-5.606973 15.76191,-12.003895 6.62528,-5.46448 9.7664,-7.975644 11.99735,-9.591264 l 1.74431,-1.263201 h 3.60319 3.60318 v 18.826718 18.826714 h -18.82671 -18.82672 z"
       id="path9175"
       inkscape:connector-curvature="0"
       transform="scale(0.26458333)" />
    <path
       style="fill:#fffafa;fill-opacity:1;fill-rule:nonzero;stroke:#fffafa;stroke-width:0.17705508;stroke-linecap:butt;stroke-linejoin:miter;stroke-miterlimit:4;stroke-dasharray:none;stroke-dashoffset:0;stroke-opacity:1;paint-order:markers fill stroke"
       d="m 302.50648,73.205946 v -2.377982 l 1.5468,-0.732409 c 5.63932,-2.670225 9.86539,-3.655121 14.89343,-3.470956 6.4412,0.235925 9.21389,1.559159 14.47927,6.910067 l 2.01651,2.049262 h -16.46801 -16.468 z"
       id="path9177"
       inkscape:connector-curvature="0"
       transform="scale(0.26458333)" />
    <path
       style="fill:#fffafa;fill-opacity:1;fill-rule:nonzero;stroke:#fffafa;stroke-width:0.17705508;stroke-linecap:butt;stroke-linejoin:miter;stroke-miterlimit:4;stroke-dasharray:none;stroke-dashoffset:0;stroke-opacity:1;paint-order:markers fill stroke"
       d="m 340.15992,170.07107 v -18.82672 h 18.82672 18.82671 v 18.82672 18.82672 h -18.82671 -18.82672 z"
       id="path9179"
       inkscape:connector-curvature="0"
       transform="scale(0.26458333)" />
    <path
       style="fill:#fffafa;fill-opacity:1;fill-rule:nonzero;stroke:#fffafa;stroke-width:0.17705508;stroke-linecap:butt;stroke-linejoin:miter;stroke-miterlimit:4;stroke-dasharray:none;stroke-dashoffset:0;stroke-opacity:1;paint-order:markers fill stroke"
       d="m 340.15992,170.07107 v -18.82672 h 18.82672 18.82671 v 18.82672 18.82672 h -18.82671 -18.82672 z"
       id="path9181"
       inkscape:connector-curvature="0"
       transform="scale(0.26458333)" />
    <path
       style="fill:#fffafa;fill-opacity:1;fill-rule:nonzero;stroke:#fffafa;stroke-width:0.17705508;stroke-linecap:butt;stroke-linejoin:miter;stroke-miterlimit:4;stroke-dasharray:none;stroke-dashoffset:0;stroke-opacity:1;paint-order:markers fill stroke"
       d=""
       id="path9183"
       inkscape:connector-curvature="0"
       transform="scale(0.26458333)" />
    <path
       style="fill:#fffafa;fill-opacity:1;fill-rule:nonzero;stroke:#fffafa;stroke-width:0.17705508;stroke-linecap:butt;stroke-linejoin:miter;stroke-miterlimit:4;stroke-dasharray:none;stroke-dashoffset:0;stroke-opacity:1;paint-order:markers fill stroke"
       d="m 415.8296,156.2383 -0.009,-4.99395 h 2.20971 c 1.21534,0 2.20971,0.0445 2.20971,0.0989 0,0.36875 -2.20148,5.53985 -3.19402,7.50252 l -1.20688,2.38649 z"
       id="path9185"
       inkscape:connector-curvature="0"
       transform="scale(0.26458333)" />
    <path
       style="fill:#fffafa;fill-opacity:1;fill-rule:nonzero;stroke:#fffafa;stroke-width:0.17705508;stroke-linecap:butt;stroke-linejoin:miter;stroke-miterlimit:4;stroke-dasharray:none;stroke-dashoffset:0;stroke-opacity:1;paint-order:markers fill stroke"
       d="m 377.99013,193.86186 v -4.78729 l 6.23138,0.006 6.23138,0.006 -0.53033,0.446 c -0.29168,0.2453 -2.08155,1.6073 -3.97748,3.02665 -4.5443,3.40201 -5.72096,4.29631 -6.93848,5.27345 l -1.01647,0.81577 z"
       id="path9187"
       inkscape:connector-curvature="0"
       transform="scale(0.26458333)" />
    <path
       style="fill:#fffafa;fill-opacity:1;fill-rule:nonzero;stroke:#fffafa;stroke-width:0.17705508;stroke-linecap:butt;stroke-linejoin:miter;stroke-miterlimit:4;stroke-dasharray:none;stroke-dashoffset:0;stroke-opacity:1;paint-order:markers fill stroke"
       d="m 302.50648,207.90128 v -18.82671 h 18.82672 18.82672 V 207.90128 226.728 H 321.3332 302.50648 Z"
       id="path9189"
       inkscape:connector-curvature="0"
       transform="scale(0.26458333)" />
    <path
       style="fill:#fffafa;fill-opacity:1;fill-rule:nonzero;stroke:#fffafa;stroke-width:0.17705508;stroke-linecap:butt;stroke-linejoin:miter;stroke-miterlimit:4;stroke-dasharray:none;stroke-dashoffset:0;stroke-opacity:1;paint-order:markers fill stroke"
       d="m 377.99013,193.85797 v -4.7834 h 6.29957 6.29957 l -1.33247,1.05063 c -0.73286,0.57786 -2.91138,2.22149 -4.84116,3.65253 -1.92978,1.43104 -4.06554,3.05198 -4.74613,3.60209 -0.68059,0.5501 -1.33688,1.059 -1.45841,1.13087 -0.17455,0.10323 -0.22097,-0.87415 -0.22097,-4.65272 z"
       id="path9191"
       inkscape:connector-curvature="0"
       transform="scale(0.26458333)" />
    <path
       style="fill:#fffafa;fill-opacity:1;fill-rule:nonzero;stroke:#fffafa;stroke-width:0.17705508;stroke-linecap:butt;stroke-linejoin:miter;stroke-miterlimit:4;stroke-dasharray:none;stroke-dashoffset:0;stroke-opacity:1;paint-order:markers fill stroke"
       d="m 264.67566,170.07107 v -18.82672 h 18.82672 18.82672 v 18.82672 18.82672 h -18.82672 -18.82672 z"
       id="path9193"
       inkscape:connector-curvature="0"
       transform="scale(0.26458333)" />
    <path
       style="fill:#fffafa;fill-opacity:1;fill-rule:nonzero;stroke:#fffafa;stroke-width:0.17705508;stroke-linecap:butt;stroke-linejoin:miter;stroke-miterlimit:4;stroke-dasharray:none;stroke-dashoffset:0;stroke-opacity:1;paint-order:markers fill stroke"
       d="m 226.84545,139.52611 v -11.54146 l 1.38528,-1.58421 c 3.09781,-3.54265 7.76552,-7.65195 13.01223,-11.45555 l 2.11153,-1.53075 h 10.5722 10.5722 v 18.82672 18.82672 h -18.82672 -18.82672 z"
       id="path9195"
       inkscape:connector-curvature="0"
       transform="scale(0.26458333)" />
    <path
       style="fill:#fffafa;fill-opacity:1;fill-rule:nonzero;stroke:#fffafa;stroke-width:0.17705508;stroke-linecap:butt;stroke-linejoin:miter;stroke-miterlimit:4;stroke-dasharray:none;stroke-dashoffset:0;stroke-opacity:1;paint-order:markers fill stroke"
       d="m 189.01524,174.13546 v -14.76232 l 2.03367,-4.0644 2.03367,-4.06439 h 16.79305 16.79304 v 18.82672 18.82672 h -18.82671 -18.82672 z"
       id="path9197"
       inkscape:connector-curvature="0"
       transform="scale(0.26458333)" />
    <path
       style="fill:#fffafa;fill-opacity:1;fill-rule:nonzero;stroke:#fffafa;stroke-width:0.17705508;stroke-linecap:butt;stroke-linejoin:miter;stroke-miterlimit:4;stroke-dasharray:none;stroke-dashoffset:0;stroke-opacity:1;paint-order:markers fill stroke"
       d="m 226.84545,207.90128 v -18.82671 h 18.82672 18.82672 v 18.82671 18.82672 h -18.82672 -18.82672 z"
       id="path9199"
       inkscape:connector-curvature="0"
       transform="scale(0.26458333)" />
    <path
       style="fill:#fffafa;fill-opacity:1;fill-rule:nonzero;stroke:#fffafa;stroke-width:0.17705508;stroke-linecap:butt;stroke-linejoin:miter;stroke-miterlimit:4;stroke-dasharray:none;stroke-dashoffset:0;stroke-opacity:1;paint-order:markers fill stroke"
       d="m 164.87671,225.15396 c 2.12172,-4.22459 5.13324,-11.3524 6.72518,-15.91745 2.25554,-6.46797 3.99189,-13.08639 5.11561,-19.49903 l 0.11617,-0.66291 h 6.00239 6.0024 v 18.82671 18.82672 h -12.37614 -12.37614 z"
       id="path9201"
       inkscape:connector-curvature="0"
       transform="scale(0.26458333)" />
    <path
       style="fill:#fffafa;fill-opacity:1;fill-rule:nonzero;stroke:#fffafa;stroke-width:0.17705508;stroke-linecap:butt;stroke-linejoin:miter;stroke-miterlimit:4;stroke-dasharray:none;stroke-dashoffset:0;stroke-opacity:1;paint-order:markers fill stroke"
       d="m 340.15931,228.62433 v -1.71955 h 1.62 1.61999 l -1.21017,1.28163 c -0.66559,0.7049 -1.39459,1.4787 -1.61999,1.71956 l -0.40983,0.43792 z"
       id="path9203"
       inkscape:connector-curvature="0"
       transform="scale(0.26458333)" />
    <path
       style="fill:#fffafa;fill-opacity:1;fill-rule:nonzero;stroke:#fffafa;stroke-width:0.17705508;stroke-linecap:butt;stroke-linejoin:miter;stroke-miterlimit:4;stroke-dasharray:none;stroke-dashoffset:0;stroke-opacity:1;paint-order:markers fill stroke"
       d="m 264.67566,245.7315 v -18.82672 h 18.82672 18.82672 v 18.82672 18.82672 h -18.82672 -18.82672 z"
       id="path9207"
       inkscape:connector-curvature="0"
       transform="scale(0.26458333)" />
    <path
       style="fill:#fffafa;fill-opacity:1;fill-rule:nonzero;stroke:#fffafa;stroke-width:0.17705508;stroke-linecap:butt;stroke-linejoin:miter;stroke-miterlimit:4;stroke-dasharray:none;stroke-dashoffset:0;stroke-opacity:1;paint-order:markers fill stroke"
       d="m 189.01524,245.7315 v -18.82672 h 18.82672 18.82671 v 18.82672 18.82672 h -18.82671 -18.82672 z"
       id="path9209"
       inkscape:connector-curvature="0"
       transform="scale(0.26458333)" />
    <path
       style="fill:#fffafa;fill-opacity:1;fill-rule:nonzero;stroke:#fffafa;stroke-width:0.17705508;stroke-linecap:butt;stroke-linejoin:miter;stroke-miterlimit:4;stroke-dasharray:none;stroke-dashoffset:0;stroke-opacity:1;paint-order:markers fill stroke"
       d="m 141.31345,263.54175 c 0.3087,-0.55906 1.61183,-2.52791 2.89583,-4.37522 1.284,-1.84732 3.37881,-4.90388 4.65514,-6.79237 l 2.32061,-3.4336 v 7.80883 7.80883 h -5.21643 -5.21642 z"
       id="path9211"
       inkscape:connector-curvature="0"
       transform="scale(0.26458333)" />
    <path
       style="fill:#fffafa;fill-opacity:1;fill-rule:nonzero;stroke:#fffafa;stroke-width:0.17705508;stroke-linecap:butt;stroke-linejoin:miter;stroke-miterlimit:4;stroke-dasharray:none;stroke-dashoffset:0;stroke-opacity:1;paint-order:markers fill stroke"
       d="m 151.18503,283.47332 v -18.73833 h 18.82671 18.82672 v 18.73833 18.73833 h -18.82672 -18.82671 z"
       id="path9213"
       inkscape:connector-curvature="0"
       transform="scale(0.26458333)" />
    <path
       style="fill:#fffafa;fill-opacity:1;fill-rule:nonzero;stroke:#fffafa;stroke-width:0.17705508;stroke-linecap:butt;stroke-linejoin:miter;stroke-miterlimit:4;stroke-dasharray:none;stroke-dashoffset:0;stroke-opacity:1;paint-order:markers fill stroke"
       d="m 226.84545,283.47332 v -18.73833 h 18.82672 18.82672 v 18.73833 18.73833 h -18.82672 -18.82672 z"
       id="path9215"
       inkscape:connector-curvature="0"
       transform="scale(0.26458333)" />
    <path
       style="fill:#fffafa;fill-opacity:1;fill-rule:nonzero;stroke:#fffafa;stroke-width:0.17705508;stroke-linecap:butt;stroke-linejoin:miter;stroke-miterlimit:4;stroke-dasharray:none;stroke-dashoffset:0;stroke-opacity:1;paint-order:markers fill stroke"
       d="m 302.50588,283.47332 v -18.73833 h 18.82672 18.82671 v 18.73833 18.73833 H 321.3326 302.50588 Z"
       id="path9217"
       inkscape:connector-curvature="0"
       transform="scale(0.26458333)" />
    <path
       style="fill:#fffafa;fill-opacity:1;fill-rule:nonzero;stroke:#fffafa;stroke-width:0.17705508;stroke-linecap:butt;stroke-linejoin:miter;stroke-miterlimit:4;stroke-dasharray:none;stroke-dashoffset:0;stroke-opacity:1;paint-order:markers fill stroke"
       d="m 340.15931,259.2721 v -5.28612 l 1.19325,0.35215 c 9.01622,2.6609 31.13006,9.78549 31.49571,10.14722 0.0405,0.0401 -7.29793,0.0729 -16.30765,0.0729 h -16.38131 z"
       id="path9219"
       inkscape:connector-curvature="0"
       transform="scale(0.26458333)" />
    <path
       style="fill:#fffafa;fill-opacity:1;fill-rule:nonzero;stroke:#fffafa;stroke-width:0.17705508;stroke-linecap:butt;stroke-linejoin:miter;stroke-miterlimit:4;stroke-dasharray:none;stroke-dashoffset:0;stroke-opacity:1;paint-order:markers fill stroke"
       d="m 377.98953,284.26882 c 0,-9.86856 0.0435,-17.94284 0.0966,-17.94284 0.26364,0 9.82669,3.64912 14.57587,5.56193 8.01379,3.2277 14.63803,6.17161 20.55029,9.13288 l 2.43068,1.21746 v 9.9867 9.9867 h -18.82672 -18.82671 z"
       id="path9221"
       inkscape:connector-curvature="0"
       transform="scale(0.26458333)" />
    <path
       style="fill:#fffafa;fill-opacity:1;fill-rule:nonzero;stroke:#fffafa;stroke-width:0.17705508;stroke-linecap:butt;stroke-linejoin:miter;stroke-miterlimit:4;stroke-dasharray:none;stroke-dashoffset:0;stroke-opacity:1;paint-order:markers fill stroke"
       d="m 340.15931,321.21515 v -18.82672 h 18.82672 18.82672 v 18.82672 18.82671 h -18.82672 -18.82672 z"
       id="path9223"
       inkscape:connector-curvature="0"
       transform="scale(0.26458333)" />
    <path
       style="fill:#fffafa;fill-opacity:1;fill-rule:nonzero;stroke:#fffafa;stroke-width:0.17705508;stroke-linecap:butt;stroke-linejoin:miter;stroke-miterlimit:4;stroke-dasharray:none;stroke-dashoffset:0;stroke-opacity:1;paint-order:markers fill stroke"
       d="m 264.67566,321.21515 v -18.82672 h 18.82672 18.82672 v 18.82672 18.82671 h -18.82672 -18.82672 z"
       id="path9225"
       inkscape:connector-curvature="0"
       transform="scale(0.26458333)" />
    <path
       style="fill:#fffafa;fill-opacity:1;fill-rule:nonzero;stroke:#fffafa;stroke-width:0.17705508;stroke-linecap:butt;stroke-linejoin:miter;stroke-miterlimit:4;stroke-dasharray:none;stroke-dashoffset:0;stroke-opacity:1;paint-order:markers fill stroke"
       d="m 189.01524,321.21515 v -18.82672 h 18.82672 18.82671 v 18.82672 18.82671 h -18.82671 -18.82672 z"
       id="path9227"
       inkscape:connector-curvature="0"
       transform="scale(0.26458333)" />
    <path
       style="fill:#fffafa;fill-opacity:1;fill-rule:nonzero;stroke:#fffafa;stroke-width:0.17705508;stroke-linecap:butt;stroke-linejoin:miter;stroke-miterlimit:4;stroke-dasharray:none;stroke-dashoffset:0;stroke-opacity:1;paint-order:markers fill stroke"
       d="m 113.53159,322.15616 v -17.8857 l 0.6481,-0.94102 0.6481,-0.94101 h 18.17862 18.17862 v 18.82672 18.82671 h -18.82672 -18.82672 z"
       id="path9229"
       inkscape:connector-curvature="0"
       transform="scale(0.26458333)" />
    <path
       style="fill:#fffafa;fill-opacity:1;fill-rule:nonzero;stroke:#fffafa;stroke-width:0.17705508;stroke-linecap:butt;stroke-linejoin:miter;stroke-miterlimit:4;stroke-dasharray:none;stroke-dashoffset:0;stroke-opacity:1;paint-order:markers fill stroke"
       d="m 38.747048,398.39728 -0.707107,-0.10749 -0.04582,-8.98659 -0.04582,-8.98659 0.995488,-1.13388 0.995489,-1.13388 h 17.744469 17.74447 v 6.7917 6.7917 l -0.928078,0.30615 c -0.510442,0.16838 -1.564473,0.57569 -2.342291,0.90512 -1.467971,0.62175 -9.684013,2.75678 -14.760854,3.83577 -6.527929,1.3874 -10.525385,1.88562 -14.848159,1.85057 -1.702072,-0.0138 -3.412873,-0.0734 -3.801782,-0.13258 z"
       id="path9231"
       inkscape:connector-curvature="0"
       transform="scale(0.26458333)" />
    <path
       style="fill:#fffafa;fill-opacity:1;fill-rule:nonzero;stroke:#fffafa;stroke-width:0.17705508;stroke-linecap:butt;stroke-linejoin:miter;stroke-miterlimit:4;stroke-dasharray:none;stroke-dashoffset:0;stroke-opacity:1;paint-order:markers fill stroke"
       d="m 75.604989,363.04012 v -14.83195 l 5.596811,-3.99476 5.596812,-3.99477 h 13.229908 13.2299 v 18.82672 18.82672 H 94.431707 75.604989 Z"
       id="path9233"
       inkscape:connector-curvature="0"
       transform="scale(0.26458333)" />
    <path
       style="fill:#fffafa;fill-opacity:1;fill-rule:nonzero;stroke:#fffafa;stroke-width:0.17705508;stroke-linecap:butt;stroke-linejoin:miter;stroke-miterlimit:4;stroke-dasharray:none;stroke-dashoffset:0;stroke-opacity:1;paint-order:markers fill stroke"
       d="m 113.4352,396.87557 v -18.82672 h 18.82672 18.82672 v 18.82672 18.82672 H 132.26192 113.4352 Z"
       id="path9235"
       inkscape:connector-curvature="0"
       transform="scale(0.26458333)" />
    <path
       style="fill:#fffafa;fill-opacity:1;fill-rule:nonzero;stroke:#fffafa;stroke-width:0.17705508;stroke-linecap:butt;stroke-linejoin:miter;stroke-miterlimit:4;stroke-dasharray:none;stroke-dashoffset:0;stroke-opacity:1;paint-order:markers fill stroke"
       d="m 151.26541,359.04536 v -18.82672 h 18.82672 18.82672 v 18.82672 18.82672 h -18.82672 -18.82672 z"
       id="path9237"
       inkscape:connector-curvature="0"
       transform="scale(0.26458333)" />
    <path
       style="fill:#fffafa;fill-opacity:1;fill-rule:nonzero;stroke:#fffafa;stroke-width:0.17705508;stroke-linecap:butt;stroke-linejoin:miter;stroke-miterlimit:4;stroke-dasharray:none;stroke-dashoffset:0;stroke-opacity:1;paint-order:markers fill stroke"
       d="m 226.92584,359.04536 v -18.82672 h 18.73833 18.73833 v 18.82672 18.82672 h -18.73833 -18.73833 z"
       id="path9239"
       inkscape:connector-curvature="0"
       transform="scale(0.26458333)" />
    <path
       style="fill:#fffafa;fill-opacity:1;fill-rule:nonzero;stroke:#fffafa;stroke-width:0.17705508;stroke-linecap:butt;stroke-linejoin:miter;stroke-miterlimit:4;stroke-dasharray:none;stroke-dashoffset:0;stroke-opacity:1;paint-order:markers fill stroke"
       d="m 189.09563,396.87557 v -18.82672 h 18.82672 18.82671 v 18.82672 18.82672 h -18.82671 -18.82672 z"
       id="path9241"
       inkscape:connector-curvature="0"
       transform="scale(0.26458333)" />
    <path
       style="fill:#fffafa;fill-opacity:1;fill-rule:nonzero;stroke:#fffafa;stroke-width:0.17705508;stroke-linecap:butt;stroke-linejoin:miter;stroke-miterlimit:4;stroke-dasharray:none;stroke-dashoffset:0;stroke-opacity:1;paint-order:markers fill stroke"
       d="m 151.26541,434.45253 v -18.57346 h 18.82672 18.82672 v 13.0781 13.07811 l -0.39775,0.0906 c -0.21876,0.0498 -1.35234,0.2922 -2.51906,0.53857 -5.11888,1.08093 -10.03366,2.48913 -20.94804,6.00211 -3.74325,1.20482 -8.2378,2.63471 -9.98789,3.17753 -1.75009,0.54282 -3.32119,1.03081 -3.49134,1.08442 -0.29328,0.0924 -0.30936,-0.8677 -0.30936,-18.476 z"
       id="path9243"
       inkscape:connector-curvature="0"
       transform="scale(0.26458333)" />
    <path
       style="fill:#fffafa;fill-opacity:1;fill-rule:nonzero;stroke:#fffafa;stroke-width:0.17705508;stroke-linecap:butt;stroke-linejoin:miter;stroke-miterlimit:4;stroke-dasharray:none;stroke-dashoffset:0;stroke-opacity:1;paint-order:markers fill stroke"
       d="m 75.604989,438.16736 v -15.36514 l 2.077143,-2.09156 c 1.142429,-1.15035 2.554433,-2.7071 3.137787,-3.45942 l 1.060642,-1.36787 15.688932,-0.002 15.688927,-0.002 v 18.82671 18.82672 H 94.431707 75.604989 Z"
       id="path9245"
       inkscape:connector-curvature="0"
       transform="scale(0.26458333)" />
    <path
       style="fill:#fffafa;fill-opacity:1;fill-rule:nonzero;stroke:#fffafa;stroke-width:0.17705508;stroke-linecap:butt;stroke-linejoin:miter;stroke-miterlimit:4;stroke-dasharray:none;stroke-dashoffset:0;stroke-opacity:1;paint-order:markers fill stroke"
       d="m 50.772323,470.75586 c -4.472499,-2.55463 -7.333828,-5.59774 -8.127129,-8.64342 -0.559969,-2.14987 -0.231145,-4.64834 0.956487,-7.26761 l 0.514883,-1.13555 h 15.655823 15.655825 v 8.10761 8.10761 l -2.253903,0.30225 c -6.129215,0.82194 -13.143793,1.33771 -18.163805,1.33556 l -2.828427,-0.001 -1.409754,-0.80523 z"
       id="path9247"
       inkscape:connector-curvature="0"
       transform="scale(0.26458333)" />
    <path
       style="fill:#fffafa;fill-opacity:1;fill-rule:nonzero;stroke:#fffafa;stroke-width:0.17705508;stroke-linecap:butt;stroke-linejoin:miter;stroke-miterlimit:4;stroke-dasharray:none;stroke-dashoffset:0;stroke-opacity:1;paint-order:markers fill stroke"
       d="m 113.4352,457.66119 v -3.95191 h 17.53036 c 9.64169,0 17.49721,0.0315 17.4567,0.0699 -0.13579,0.12885 -6.58841,1.66915 -8.9125,2.12748 -1.26395,0.24927 -3.37201,0.61557 -4.68458,0.81401 -2.70367,0.40875 -8.41654,1.68028 -16.13087,3.59031 l -5.25911,1.30213 z"
       id="path9249"
       inkscape:connector-curvature="0"
       transform="scale(0.26458333)" />
    <path
       style="fill:#fffafa;fill-opacity:1;fill-rule:nonzero;stroke:#fffafa;stroke-width:0.17705508;stroke-linecap:butt;stroke-linejoin:miter;stroke-miterlimit:4;stroke-dasharray:none;stroke-dashoffset:0;stroke-opacity:1;paint-order:markers fill stroke"
       d="m 227.61153,453.31153 c -0.73339,-2.80018 -0.71867,-2.41153 -0.76969,-20.32932 l -0.0487,-17.10314 h 18.82845 18.82846 v 18.82671 18.82672 h -18.39032 c -14.56355,0 -18.40237,-0.046 -18.4482,-0.22097 z"
       id="path9251"
       inkscape:connector-curvature="0"
       transform="scale(0.26458333)" />
    <path
       style="fill:#fffafa;fill-opacity:1;fill-rule:nonzero;stroke:#fffafa;stroke-width:0.17705508;stroke-linecap:butt;stroke-linejoin:miter;stroke-miterlimit:4;stroke-dasharray:none;stroke-dashoffset:0;stroke-opacity:1;paint-order:markers fill stroke"
       d="m 221.03372,490.5353 c -0.18382,-0.97984 0.054,-4.63727 0.46345,-7.12754 0.46002,-2.79782 1.30502,-6.31941 2.65634,-11.07042 0.58416,-2.0538 1.37182,-4.91759 1.75037,-6.36396 l 0.68825,-2.62977 0.0138,13.92116 0.0139,13.92117 h -2.73203 -2.73203 z"
       id="path9253"
       inkscape:connector-curvature="0"
       transform="scale(0.26458333)" />
    <path
       style="fill:#fffafa;fill-opacity:1;fill-rule:nonzero;stroke:#fffafa;stroke-width:0.17705508;stroke-linecap:butt;stroke-linejoin:miter;stroke-miterlimit:4;stroke-dasharray:none;stroke-dashoffset:0;stroke-opacity:1;paint-order:markers fill stroke"
       d="m 264.62683,462.6325 v -8.92322 h 13.62536 13.62537 l -0.4997,0.41206 c -1.06877,0.88133 -6.64078,5.10795 -9.16175,6.94962 -4.65231,3.39868 -6.49836,4.60065 -7.95495,5.17951 -2.02019,0.80284 -5.82403,2.80871 -7.87633,4.15339 l -1.758,1.15186 z"
       id="path9255"
       inkscape:connector-curvature="0"
       transform="scale(0.26458333)" />
    <path
       style="fill:#fffafa;fill-opacity:1;fill-rule:nonzero;stroke:#fffafa;stroke-width:0.17705508;stroke-linecap:butt;stroke-linejoin:miter;stroke-miterlimit:4;stroke-dasharray:none;stroke-dashoffset:0;stroke-opacity:1;paint-order:markers fill stroke"
       d="m 264.62683,396.87557 v -18.82672 h 18.82671 18.82672 v 18.82672 18.82672 h -18.82672 -18.82671 z"
       id="path9257"
       inkscape:connector-curvature="0"
       transform="scale(0.26458333)" />
    <path
       style="fill:#fffafa;fill-opacity:1;fill-rule:nonzero;stroke:#fffafa;stroke-width:0.17705508;stroke-linecap:butt;stroke-linejoin:miter;stroke-miterlimit:4;stroke-dasharray:none;stroke-dashoffset:0;stroke-opacity:1;paint-order:markers fill stroke"
       d="m 302.45704,430.57893 v -14.69986 h 18.59943 c 15.72554,0 18.55944,0.0373 18.34058,0.24134 -1.27132,1.18535 -7.25541,6.0153 -9.00929,7.27171 -3.22642,2.31125 -8.7824,6.51733 -12.72793,9.63551 -3.12634,2.47077 -14.14498,11.33672 -14.89343,11.98373 -0.29429,0.25441 -0.30936,-0.44853 -0.30936,-14.43243 z"
       id="path9259"
       inkscape:connector-curvature="0"
       transform="scale(0.26458333)" />
    <path
       style="fill:#fffafa;fill-opacity:1;fill-rule:nonzero;stroke:#fffafa;stroke-width:0.17705508;stroke-linecap:butt;stroke-linejoin:miter;stroke-miterlimit:4;stroke-dasharray:none;stroke-dashoffset:0;stroke-opacity:1;paint-order:markers fill stroke"
       d="m 302.45704,359.04536 v -18.82672 h 18.82672 18.82671 v 18.82672 18.82672 h -18.82671 -18.82672 z"
       id="path9261"
       inkscape:connector-curvature="0"
       transform="scale(0.26458333)" />
    <path
       style="fill:#fffafa;fill-opacity:1;fill-rule:nonzero;stroke:#fffafa;stroke-width:0.17705508;stroke-linecap:butt;stroke-linejoin:miter;stroke-miterlimit:4;stroke-dasharray:none;stroke-dashoffset:0;stroke-opacity:1;paint-order:markers fill stroke"
       d="m 340.28725,396.72044 v -18.67159 h 18.82672 18.82672 v 5.00385 5.00384 l -2.43068,1.65837 c -11.99024,8.18053 -23.56665,16.54767 -31.50536,22.77125 -1.8015,1.41229 -3.37489,2.64387 -3.49643,2.73683 -0.17645,0.13498 -0.22097,-3.59298 -0.22097,-18.50255 z"
       id="path9263"
       inkscape:connector-curvature="0"
       transform="scale(0.26458333)" />
    <path
       style="fill:#fffafa;fill-opacity:1;fill-rule:nonzero;stroke:#fffafa;stroke-width:0.17705508;stroke-linecap:butt;stroke-linejoin:miter;stroke-miterlimit:4;stroke-dasharray:none;stroke-dashoffset:0;stroke-opacity:1;paint-order:markers fill stroke"
       d="m 378.11746,359.04536 v -18.82672 h 18.73968 18.73968 l -0.0455,10.89615 -0.0455,10.89614 -2.65166,1.93427 c -3.95788,2.88711 -9.11235,6.51191 -14.82929,10.42846 l -5.10657,3.49842 h -7.40038 -7.40038 z"
       id="path9265"
       inkscape:connector-curvature="0"
       transform="scale(0.26458333)" />
    <path
       style="fill:#fffafa;fill-opacity:1;fill-rule:nonzero;stroke:#fffafa;stroke-width:0.17705508;stroke-linecap:butt;stroke-linejoin:miter;stroke-miterlimit:4;stroke-dasharray:none;stroke-dashoffset:0;stroke-opacity:1;paint-order:markers fill stroke"
       d="m 415.7709,321.21515 v -18.82672 h 13.87716 13.87715 l 0.8395,1.07798 c 2.80616,3.6033 4.60356,7.26603 5.4567,11.11961 0.41553,1.87692 0.41215,6.31788 -0.006,8.22012 -1.16891,5.31437 -3.62942,10.07162 -8.1145,15.68893 l -1.23502,1.54679 H 428.11827 415.7709 Z"
       id="path9267"
       inkscape:connector-curvature="0"
       transform="scale(0.26458333)" />
    <path
       style="fill:#fffafa;fill-opacity:1;fill-rule:nonzero;stroke:#fffafa;stroke-width:0.12519684;stroke-linecap:butt;stroke-linejoin:miter;stroke-miterlimit:4;stroke-dasharray:none;stroke-dashoffset:0;stroke-opacity:1;paint-order:markers fill stroke"
       d="m 226.86338,492.3406 v -0.95364 l 4.15625,0.006 4.15625,0.006 -0.625,0.2482 c -1.80525,0.7169 -4.68316,1.39114 -6.65625,1.55943 l -1.03125,0.0879 z"
       id="path9269"
       inkscape:connector-curvature="0"
       transform="scale(0.26458333)" />
  </g>
  <g
     inkscape:groupmode="layer"
     id="layer15"
     inkscape:label="Circle"
     style="display:inline">
    <ellipse
       style="fill:url(#linearGradient8587);fill-opacity:1;stroke:#ff5b59;stroke-width:0.50408381;stroke-linecap:butt;stroke-linejoin:miter;stroke-miterlimit:4;stroke-dasharray:none;stroke-dashoffset:0;stroke-opacity:1;paint-order:markers fill stroke"
       id="path6319"
       cx="54.154015"
       cy="61.317184"
       rx="43.225189"
       ry="40.956814" />
  </g>
  <g
     style="display:inline"
     inkscape:label="Flat Colours"
     id="g6536"
     inkscape:groupmode="layer">
    <path
       style="fill:#ffd873;fill-opacity:1;fill-rule:nonzero;stroke:#ffd873;stroke-width:1;stroke-linecap:butt;stroke-linejoin:miter;stroke-miterlimit:4;stroke-dasharray:none;stroke-dashoffset:0;stroke-opacity:1;paint-order:markers fill stroke"
       d="m 279.78651,413.59143 c -0.55,-0.11166 -2.28943,-0.56987 -3.86539,-1.01825 -2.71914,-0.77362 -2.84728,-0.88152 -2.51069,-2.11398 0.62078,-2.27302 0.25699,-10.06121 -0.82536,-17.66987 -0.57671,-4.05412 -1.04856,-9.00836 -1.04856,-11.00944 v -3.63831 l 4.61336,-3.24056 c 2.53734,-1.78231 7.24074,-5.82807 10.45198,-8.99057 l 5.83862,-5.75 4.82036,-9.75 c 2.6512,-5.3625 6.04084,-12 7.53253,-14.75 1.4917,-2.75 3.64105,-7.29918 4.77635,-10.10929 1.1353,-2.81011 2.92229,-6.29761 3.97109,-7.75 1.04881,-1.45239 4.56899,-6.46571 7.82263,-11.14071 6.14263,-8.82606 12.18034,-15.52848 15.04808,-16.70477 1.88124,-0.77166 2.31574,-2.31751 0.5,-1.7789 -3.87882,1.15059 -9.23424,6.80957 -17.03708,18.00277 -3.25164,4.6645 -6.80469,9.7184 -7.89565,11.2309 -14.16978,19.64485 -34.05074,31.16527 -58.69227,34.01046 -2.75,0.31752 -6.50814,0.75534 -8.35143,0.97294 -10.8506,1.2809 -22.99978,-3.10634 -31.1377,-11.24427 -4.35352,-4.35352 -7.77497,-10.0081 -9.41555,-15.56096 -0.73806,-2.49811 -0.72602,-2.6216 0.42007,-4.30823 1.66711,-2.45337 5.7999,-5.03387 12.14778,-7.58504 8.67672,-3.48712 10.78545,-4.83005 12.38147,-7.88507 3.18397,-6.09461 -3.84349,-14.34152 -14.61068,-17.14602 -4.07756,-1.06207 -8.8553,-0.93897 -12.18396,0.31393 -1.5125,0.5693 -4.775,1.20206 -7.25,1.40612 -5.14361,0.4241 -7.7589,1.51533 -10.14507,4.23302 -3.71086,4.22644 -3.2869,11.17507 1.0974,17.98641 3.20976,4.98659 9.67235,9.67192 14.62581,10.6036 1.33991,0.25201 1.62968,0.5728 1.9195,2.12497 0.47161,2.52574 3.38387,8.6958 5.48447,11.61969 l 1.74541,2.42947 -2.28585,1.3396 c -3.49738,2.0496 -5.61561,2.64349 -9.514,2.66744 -6.81906,0.0419 -14.20512,-3.16289 -20.09336,-8.71841 -6.37607,-6.01579 -8.95749,-12.56329 -8.45687,-21.44993 0.49141,-8.72311 4.0941,-15.61988 12.582,-24.08618 5.45758,-5.44369 10.40374,-9.25794 16.79056,-12.94811 3.86932,-2.2356 3.68101,-2.07804 3.27286,-2.73844 -0.51572,-0.83445 -5.96789,2.31794 -15.02271,8.68596 -0.92086,0.64762 -2.98328,-0.35082 -4.03255,-1.95222 -1.16742,-1.78171 -0.3504,-4.80273 2.81041,-10.39179 2.48076,-4.38657 3.05633,-6.68609 1.7947,-7.17022 -0.37251,-0.14295 -1.79234,0.16379 -3.15519,0.68163 -2.1993,0.83567 -2.601,0.8598 -3.57271,0.21461 -1.67175,-1.11 -1.37739,-2.80081 0.78019,-4.48144 1.03125,-0.80329 4.99075,-3.19076 8.7989,-5.3055 6.02698,-3.3469 7.14426,-3.80364 8.625,-3.52585 1.88711,0.35402 2.49146,-0.6791 0.67511,-1.15409 -1.02239,-0.26736 -1.02214,-0.2724 0.0725,-1.43764 1.03785,-1.10475 1.07924,-1.45328 0.74918,-6.30989 -0.19215,-2.8273 -0.47949,-5.66793 -0.63854,-6.31251 -0.28605,-1.15926 -0.27247,-1.16333 1.25198,-0.375 0.84764,0.43833 1.88983,0.79696 2.31599,0.79696 1.47796,0 0.76346,-1.00022 -1.46165,-2.04614 -2.83591,-1.33304 -2.95175,-1.87214 -2.94452,-13.70386 0.007,-11.99545 1.48598,-18.63522 5.7669,-25.89568 0.78495,-1.33129 2.09604,-4.15492 2.91353,-6.27474 4.92066,-12.7597 16.07475,-22.31116 36.50057,-31.25615 3.4375,-1.50536 8.63831,-3.87215 11.55736,-5.25952 9.89569,-4.70326 24.32404,-8.98378 36.44264,-10.81159 8.44991,-1.27448 22.95821,-1.52522 31.39792,-0.54264 14.7949,1.72248 27.98599,6.19137 38.85208,13.16235 1.925,1.23495 3.59042,2.32813 3.70095,2.42929 0.11052,0.10115 -0.71026,2.15599 -1.82394,4.5663 -3.22583,6.98153 -6.62701,19.36454 -6.62701,24.12759 0,3.30461 1.19829,1.06329 2.01798,-3.7745 2.69955,-15.93267 9.86755,-30.04165 19.17972,-37.75199 1.67876,-1.38999 5.14676,-3.55533 7.70665,-4.81186 4.48896,-2.20342 4.78212,-2.27625 8.25,-2.04977 4.20383,0.27455 6.78394,1.43667 9.38144,4.22555 3.44639,3.7003 4.51014,6.35653 7.70506,19.23988 3.81622,15.38873 5.81881,18.16617 20.06675,27.83112 8.74555,5.93246 12.44139,9.10338 14.81773,12.71318 3.59491,5.46089 4.02055,9.17935 2.13289,18.63318 -1.12671,5.64282 -1.56026,21.40874 -0.77392,28.14333 1.03284,8.84566 4.06667,19.65329 7.38263,26.29968 1.51188,3.03036 1.24141,5.07933 -1.00878,7.64216 -2.82866,3.22166 -6.52472,3.92643 -12.48793,2.3812 -3.83947,-0.9949 -10.73998,-4.45421 -14.62022,-7.32929 -4.49736,-3.33234 -13.33117,-12.21052 -15.74096,-15.82003 -4.9924,-7.47788 -8.41606,-16.3499 -9.73371,-25.22378 -1.36372,-9.18422 -1.13419,-12.32814 2.90895,-39.84327 2.47607,-16.85059 3.0123,-23.75263 2.64113,-33.9949 -0.40221,-11.09879 -0.73907,-12.79364 -2.90113,-14.59664 -5.07151,-4.22923 -10.70106,-4.88476 -16.6848,-1.94284 -6.70771,3.29786 -14.08579,12.45576 -17.25835,21.42161 -1.93445,5.46687 -3.14093,13.0322 -2.73033,17.1208 l 0.33187,3.30463 -2.04133,0.6737 c -1.97766,0.65269 -2.48237,1.18206 -1.62952,1.70915 0.22651,0.13998 1.85776,-0.21529 3.625,-0.78949 4.14214,-1.34584 11.34569,-1.49539 14.07038,-0.2921 2.56165,1.13128 2.9235,2.78494 1.18444,5.41284 -0.94909,1.43417 -2.12505,2.35443 -4.15689,3.253 -5.4029,2.38942 -7.28175,4.57402 -5.77903,6.71946 0.89456,1.27716 2.24155,1.82506 6.88263,2.7996 3.79733,0.79737 6.99381,2.56961 7.49761,4.15695 0.35787,1.12754 -0.54901,3.08573 -3.02543,6.53273 -1.94042,2.70092 -3.21053,5.48793 -3.21053,7.04488 0,4.36228 6.27641,9.54836 13.88156,11.47008 2.26323,0.57189 5.61844,3.13519 5.61844,4.29236 0,1.54362 3.24905,10.70962 5.12354,14.45418 2.95799,5.90901 6.29147,10.45498 11.35821,15.48958 3.5629,3.54029 4.51825,4.7879 4.51825,5.90051 0,1.13466 -0.33613,1.55138 -1.71656,2.12816 -2.06034,0.86087 -3.28344,2.46612 -3.28344,4.30931 0,0.90325 -0.32432,1.45799 -0.97271,1.66378 -1.75314,0.55642 -5.87049,5.62941 -9.60764,11.83756 -4.61264,7.66251 -8.44383,11.87804 -12.69884,13.97278 -3.58855,1.76663 -3.17295,1.02865 -8.94754,15.88844 -4.58535,11.7995 -7.99766,17.76253 -13.06329,22.82816 -3.14416,3.14416 -4.04412,3.63274 -17.45998,9.47882 -12.79946,5.57748 -18.78021,8.6458 -25,12.82579 -7.62289,5.12294 -10.95115,8.44623 -16.53915,16.51443 -7.84984,11.33393 -13.31513,16.08213 -19.7652,17.17187 -1.59189,0.26894 -1.99846,0.57296 -2.21996,1.66003 -0.74795,3.67074 -1.43716,5.36917 -2.6852,6.61722 -1.95823,1.95823 -5.47827,2.81698 -8.79049,2.14454 z"
       id="path8270"
       inkscape:connector-curvature="0"
       transform="scale(0.26458333)" />
    <path
       style="fill:#ffd873;fill-opacity:1;fill-rule:nonzero;stroke:#ffd873;stroke-width:1;stroke-linecap:butt;stroke-linejoin:miter;stroke-miterlimit:4;stroke-dasharray:none;stroke-dashoffset:0;stroke-opacity:1;paint-order:markers fill stroke"
       d="m 140.78651,230.1426 c -1.925,-0.41487 -5.54473,-1.75349 -8.04383,-2.9747 -3.71076,-1.81329 -5.18971,-2.90032 -8.06666,-5.929 -5.31735,-5.59779 -6.8292,-10.55515 -4.61434,-15.13044 1.87487,-3.87297 5.50667,-5.88465 18.0116,-9.97674 14.22423,-4.65471 17.05043,-6.19571 20.39462,-11.12024 2.4761,-3.64622 5.76458,-6.67071 9.1485,-8.4141 3.5032,-1.80483 10.45054,-2.23102 15.42011,-0.94596 6.18442,1.59921 14.15108,5.99186 20.60944,11.36362 l 2.35944,1.96247 -2.29995,4.25372 c -1.26496,2.33954 -2.81949,5.8682 -3.4545,7.84147 -0.635,1.97326 -1.39982,3.52924 -1.69959,3.45772 -1.16925,-0.27895 -3.44667,1.46742 -7.76484,5.95426 -7.93914,8.24924 -9.76932,9.80957 -14.84398,12.65531 -9.62912,5.39977 -15.72989,7.211 -25.40602,7.54269 -4.41014,0.15117 -7.28032,-0.008 -9.75,-0.54008 z"
       id="path8272"
       inkscape:connector-curvature="0"
       transform="scale(0.26458333)" />
    <path
       style="fill:#ffd873;fill-opacity:1;fill-rule:nonzero;stroke:#ffd873;stroke-width:1;stroke-linecap:butt;stroke-linejoin:miter;stroke-miterlimit:4;stroke-dasharray:none;stroke-dashoffset:0;stroke-opacity:1;paint-order:markers fill stroke"
       d="m 194.43024,245.77441 c -3.6556,-2.9536 -7.19432,-8.44855 -10.56363,-16.4033 l -2.85621,-6.74334 6.20688,-6.36652 c 7.26353,-7.45034 6.51439,-7.83381 7.55424,3.86698 0.69471,7.81702 1.18039,9.83681 2.77479,11.53943 0.73522,0.78512 1.0921,2.46753 1.61851,7.63008 0.66607,6.53219 0.66081,6.63651 -0.38372,7.6178 -0.58248,0.5472 -1.20486,0.99491 -1.38309,0.99491 -0.17822,0 -1.51372,-0.96122 -2.96777,-2.13604 z"
       id="path8274"
       inkscape:connector-curvature="0"
       transform="scale(0.26458333)" />
    <path
       style="fill:#ffd873;fill-opacity:1;fill-rule:nonzero;stroke:#ffd873;stroke-width:1;stroke-linecap:butt;stroke-linejoin:miter;stroke-miterlimit:4;stroke-dasharray:none;stroke-dashoffset:0;stroke-opacity:1;paint-order:markers fill stroke"
       d="m 301.13651,459.31045 c -0.86945,-0.86945 -0.72628,-3.70615 0.36227,-7.1776 2.86805,-9.14638 4.23964,-26.09328 3.45104,-42.63984 l -0.48457,-10.16744 2.68822,-2.83256 c 1.47852,-1.55791 4.57636,-5.64506 6.8841,-9.08256 8.76588,-13.05727 17.08222,-18.8321 43.99727,-30.55154 11.5854,-5.04455 14.02318,-6.61214 18.04903,-11.60622 3.75143,-4.65367 6.64762,-10.35054 11.48031,-22.58203 l 4.56722,-11.55959 2.41353,-1.10723 c 4.89832,-2.24715 8.54139,-6.13541 13.39057,-14.29181 3.35815,-5.64847 6.58259,-9.98894 7.97356,-10.73337 0.81309,-0.43515 0.86647,-0.16316 0.69762,3.55494 -0.24303,5.35153 0.58215,13.75092 2.98429,30.37685 2.16152,14.96056 2.57042,16.87823 5.24314,24.58954 4.84646,13.98292 13.42083,26.28072 24.9524,35.78803 4.60515,3.79675 8.25,7.18184 8.25,7.66204 0,0.18228 -2.0747,0.49371 -4.61043,0.69208 -2.97163,0.23246 -5.2888,0.70674 -6.51887,1.33428 -2.02672,1.03395 -4.68949,4.68487 -5.92055,8.11766 -0.42033,1.17207 -1.15066,2.10746 -1.85435,2.375 -2.66045,1.0115 -8.34342,0.40942 -17.56958,-1.86139 -3.67559,-0.90466 -6.21249,-0.66676 -9.43421,0.8847 -2.52798,1.21738 -4.25798,3.60458 -5.388,7.4348 -0.58291,1.97578 -1.41139,3.31566 -2.98944,4.83475 -2.67621,2.57622 -5.36893,3.41429 -9.21457,2.86789 -5.136,-0.72972 -8.09583,-0.54317 -10.54993,0.66493 -2.61399,1.28682 -5.49782,3.96897 -7.29282,6.7828 -0.67263,1.05441 -3.28943,3.99766 -5.81511,6.54056 -5.87707,5.91714 -9.78755,8.02823 -14.49699,7.82627 -8.82998,-0.37866 -10.20278,-0.17705 -13.45276,1.97564 -1.23825,0.82018 -3.08574,2.74791 -4.10553,4.28384 -2.62976,3.9607 -4.98031,4.94907 -10.78931,4.53673 -4.89831,-0.34769 -5.41365,-0.12231 -11.24755,4.91922 -3.95304,3.41612 -7.39756,5.81637 -10.66608,7.43243 -2.94209,1.45467 -4.08304,1.61908 -4.98392,0.7182 z"
       id="path8276"
       inkscape:connector-curvature="0"
       transform="scale(0.26458333)" />
    <path
       style="fill:#ffd873;fill-opacity:1;fill-rule:nonzero;stroke:#ffd873;stroke-width:1;stroke-linecap:butt;stroke-linejoin:miter;stroke-miterlimit:4;stroke-dasharray:none;stroke-dashoffset:0;stroke-opacity:1;paint-order:markers fill stroke"
       d="m 213.78727,386.84546 c -4.04678,-4.4793 -5.50014,-10.6002 -4.0912,-17.23028 0.97813,-4.60283 5.67703,-17.16907 6.89559,-18.44084 1.31512,-1.37255 1.2486,-0.33211 -0.26288,4.11183 -3.1316,9.20729 -3.52672,15.38967 -1.27413,19.93611 1.09954,2.21921 1.18953,2.83279 0.83778,5.71222 -0.21674,1.77428 -0.28359,4.2947 -0.14856,5.60095 0.13504,1.30625 0.16981,2.375 0.0773,2.375 -0.0925,0 -1.00778,-0.92924 -2.03386,-2.06499 z"
       id="path8278"
       inkscape:connector-curvature="0"
       transform="scale(0.26458333)" />
    <path
       style="fill:#835f00;fill-opacity:1;fill-rule:nonzero;stroke:#835f00;stroke-width:1;stroke-linecap:butt;stroke-linejoin:miter;stroke-miterlimit:4;stroke-dasharray:none;stroke-dashoffset:0;stroke-opacity:1;paint-order:markers fill stroke"
       d="m 399.69136,234.3653 c -0.29984,-0.29983 -2.32755,-1.04812 -4.50603,-1.66285 -4.45374,-1.25678 -8.90626,-4.22248 -10.70227,-7.12848 -1.49086,-2.41226 -1.03831,-4.39409 2.01049,-8.80433 3.4555,-4.99856 3.90094,-6.40116 2.69343,-8.48109 -0.94626,-1.62994 -5.14296,-4.34433 -6.75086,-4.36642 -1.96621,-0.027 -5.96625,-1.15534 -6.96617,-1.96503 l -1.07806,-0.87296 1.19731,-1.14944 c 0.65852,-0.63219 2.60535,-1.81831 4.32629,-2.63583 5.1299,-2.43692 7.79322,-6.77493 5.91726,-9.63802 -1.45413,-2.21927 -3.93969,-2.92802 -10.13143,-2.88894 l -5.58518,0.0353 -0.331,-2.40667 c -0.65884,-4.79036 1.16763,-13.91141 3.97203,-19.83558 5.71635,-12.07552 15.1384,-19.90262 22.85771,-18.98838 2.67418,0.31672 5.95226,1.96778 7.76571,3.91134 1.43684,1.53992 2.15592,7.20389 2.15592,16.98149 0,9.20507 -0.43169,13.47892 -3.5545,35.19109 -2.71622,18.88524 -3.29379,25.95985 -2.58183,31.625 0.45293,3.60397 0.33363,4.12231 -0.70882,3.07985 z"
       id="path8290"
       inkscape:connector-curvature="0"
       transform="scale(0.26458333)" />
    <path
       style="fill:#835f00;fill-opacity:1;fill-rule:nonzero;stroke:#835f00;stroke-width:1;stroke-linecap:butt;stroke-linejoin:miter;stroke-miterlimit:4;stroke-dasharray:none;stroke-dashoffset:0;stroke-opacity:1;paint-order:markers fill stroke"
       d="m 197.10338,227.53545 c -0.25942,-1.03125 -0.72416,-4.9125 -1.03275,-8.625 -0.30859,-3.7125 -0.7538,-7.58259 -0.98935,-8.60021 -0.44149,-1.90729 -0.39989,-1.98584 2.01396,-3.80331 0.73969,-0.55694 0.80385,0.3947 0.75154,11.1473 -0.0315,6.46592 -0.10546,11.75622 -0.16446,11.75622 -0.059,0 -0.31952,-0.84375 -0.57894,-1.875 z"
       id="path8292"
       inkscape:connector-curvature="0"
       transform="scale(0.26458333)" />
    <path
       style="fill:#835f00;fill-opacity:1;fill-rule:nonzero;stroke:#835f00;stroke-width:1;stroke-linecap:butt;stroke-linejoin:miter;stroke-miterlimit:4;stroke-dasharray:none;stroke-dashoffset:0;stroke-opacity:1;paint-order:markers fill stroke"
       d="m 198.38021,320.92351 c -9.60298,-3.75201 -16.66513,-15.87088 -13.46473,-23.1059 1.74163,-3.93724 5.35191,-5.87179 11.14038,-5.96952 2.16805,-0.0366 3.9707,-0.40534 5.48065,-1.12109 3.07255,-1.45645 10.42453,-1.50085 14.7335,-0.089 3.84999,1.26148 8.55417,4.44171 10.62993,7.18629 1.33677,1.76747 1.63657,2.61714 1.63657,4.63816 0,2.24773 -0.19633,2.67062 -2.14418,4.61847 -1.64677,1.64676 -3.29965,2.58665 -7.125,4.05151 -7.97138,3.05251 -12.5301,5.6093 -14.89252,8.35256 -1.14857,1.33372 -2.4258,2.41453 -2.8383,2.4018 -0.4125,-0.0127 -1.83284,-0.44622 -3.1563,-0.96331 z"
       id="path8294"
       inkscape:connector-curvature="0"
       transform="scale(0.26458333)" />
    <path
       style="fill:#552200;fill-opacity:1;fill-rule:nonzero;stroke:#2b1100;stroke-width:1;stroke-linecap:butt;stroke-linejoin:miter;stroke-miterlimit:4;stroke-dasharray:none;stroke-dashoffset:0;stroke-opacity:1;paint-order:markers fill stroke"
       d="m 215.8398,373.39784 c -1.4953,-3.73711 -0.81106,-9.408 2.30452,-19.09977 l 1.08089,-3.36237 1.71099,1.30503 c 2.29059,1.74712 5.62811,2.14192 6.94812,0.82191 0.53058,-0.53058 1.23817,-0.87353 1.57243,-0.76211 0.35081,0.11694 -0.65319,1.55052 -2.37485,3.39097 -3.86447,4.13114 -6.79717,9.11928 -8.81782,14.998 l -1.62099,4.71597 z"
       id="path8308"
       inkscape:connector-curvature="0"
       transform="scale(0.26458333)" />
    <path
       style="fill:#552200;fill-opacity:1;fill-rule:nonzero;stroke:#2b1100;stroke-width:1;stroke-linecap:butt;stroke-linejoin:miter;stroke-miterlimit:4;stroke-dasharray:none;stroke-dashoffset:0;stroke-opacity:1;paint-order:markers fill stroke"
       d=""
       id="path8310"
       inkscape:connector-curvature="0"
       transform="scale(0.26458333)" />
    <path
       style="fill:#552200;fill-opacity:1;fill-rule:nonzero;stroke:#2b1100;stroke-width:1;stroke-linecap:butt;stroke-linejoin:miter;stroke-miterlimit:4;stroke-dasharray:none;stroke-dashoffset:0;stroke-opacity:1;paint-order:markers fill stroke"
       d="m 272.03651,375.46875 c 0,-0.28643 0.46086,-1.75254 1.02413,-3.25803 0.75455,-2.01672 1.78618,-3.43651 3.91911,-5.39375 2.63477,-2.41774 9.42303,-6.3129 12.53359,-7.19187 1.10204,-0.31141 1.00889,-0.0864 -0.91574,2.21238 -3.66374,4.37594 -16.56109,14.99162 -16.56109,13.63127 z"
       id="path8312"
       inkscape:connector-curvature="0"
       transform="scale(0.26458333)" />
    <path
       style="fill:#ff5e71;fill-opacity:1;fill-rule:nonzero;stroke:#ff5e71;stroke-width:1;stroke-linecap:butt;stroke-linejoin:miter;stroke-miterlimit:4;stroke-dasharray:none;stroke-dashoffset:0;stroke-opacity:1;paint-order:markers fill stroke"
       d="m 245.03651,421.61367 c -4.23398,-0.9072 -10.56647,-4.05272 -13.8927,-6.90087 -6.22095,-5.32681 -11.13311,-13.13493 -12.92967,-20.55235 -1.22606,-5.06197 -1.11315,-14.31835 0.236,-19.34923 2.0083,-7.48872 6.27166,-15.02698 11.16557,-19.74238 2.15922,-2.08045 2.18391,-2.08912 4.62874,-1.6246 2.03177,0.38603 3.01053,0.99762 5.64495,3.52732 3.0847,2.96208 3.25226,3.04989 5.21954,2.7353 2.62059,-0.41904 4.30428,-1.30959 7.17757,-3.79641 2.55157,-2.20836 4.76398,-3.5 5.99509,-3.5 0.43711,0 1.67682,0.45 2.75491,1 2.54612,1.29894 3.16554,1.26222 4.8369,-0.28675 1.04375,-0.96731 1.70181,-1.20671 2.65076,-0.96433 4.32186,1.10389 4.3424,1.09732 7.59742,-2.43084 2.31861,-2.51317 4.17468,-3.90205 7.81134,-5.84517 8.16797,-4.36425 13.13098,-7.9925 19.72858,-14.42274 2.13125,-2.07719 3.875,-3.52314 3.875,-3.21322 0,0.98694 -3.76963,8.78571 -6,12.41305 -1.18364,1.925 -3.03083,5.4125 -4.10486,7.75 -1.07403,2.3375 -2.75504,5.85693 -3.73558,7.82095 -1.69382,3.39275 -1.88485,3.58727 -3.82785,3.89797 -2.99019,0.47815 -11.49119,5.10304 -14.23896,7.74657 -5.52812,5.31841 -6.66283,11.95305 -4.54048,26.54818 0.57875,3.97998 1.07794,9.59883 1.10931,12.48633 0.0485,4.46603 -0.1123,5.62332 -1.07695,7.75 -2.06608,4.55492 -5.89188,7.61644 -11.33463,9.07033 -3.16828,0.84632 -10.52628,0.7879 -14.75,-0.11711 z m -0.95936,-12.62124 c -5.69877,-5.82399 -8.23344,-12.76867 -8.24197,-22.58198 -0.007,-7.53158 1.20521,-13.8732 3.92872,-20.56048 0.20214,-0.49633 0.0405,-0.92158 -0.41688,-1.09711 -0.56697,-0.21757 -1.05335,0.64039 -2.01845,3.56048 -2.22525,6.73286 -2.92448,10.94686 -2.96137,17.84711 -0.0395,7.39516 0.99584,12.13604 3.81811,17.48245 1.95174,3.6973 7.69161,9.83479 8.29086,8.86519 0.27081,-0.43819 -0.51608,-1.59135 -2.39902,-3.51566 z"
       id="path8316"
       inkscape:connector-curvature="0"
       transform="scale(0.26458333)" />
    <path
       style="fill:#ffffff;fill-opacity:1;fill-rule:nonzero;stroke:#ffffff;stroke-width:1;stroke-linecap:butt;stroke-linejoin:miter;stroke-miterlimit:4;stroke-dasharray:none;stroke-dashoffset:0;stroke-opacity:1;paint-order:markers fill stroke"
       d="m 197.93991,353.90659 c -1.37145,-1.13046 -2.1007,-2.34087 -2.93708,-4.875 -0.61196,-1.85412 -1.19379,-3.59614 -1.29297,-3.87114 -0.11227,-0.31132 1.66064,-0.50154 4.69816,-0.5041 4.28603,-0.004 5.24117,-0.17342 7.86493,-1.39835 1.64254,-0.76684 3.34477,-1.71855 3.78273,-2.1149 0.70461,-0.63766 0.99403,-0.51423 2.51356,1.07202 2.39036,2.4953 7.09894,5.78799 11.06405,7.73703 1.84073,0.90481 3.2337,1.82808 3.09549,2.0517 -0.60012,0.97102 -3.16449,0.31681 -5.24691,-1.33854 -2.6167,-2.08009 -4.32118,-2.21551 -6.35418,-0.50486 -1.95567,1.64559 -2.59866,1.58245 -5.09118,-0.5 -3.24762,-2.7133 -4.57098,-2.34729 -6.69558,1.85185 -0.98626,1.94929 -2.59107,3.89815 -3.20998,3.89815 -0.20163,0 -1.1876,-0.67673 -2.19104,-1.50386 z"
       id="path8337"
       inkscape:connector-curvature="0"
       transform="scale(0.26458333)" />
    <path
       style="fill:#ffffff;fill-opacity:1;fill-rule:nonzero;stroke:#ffffff;stroke-width:1;stroke-linecap:butt;stroke-linejoin:miter;stroke-miterlimit:4;stroke-dasharray:none;stroke-dashoffset:0;stroke-opacity:1;paint-order:markers fill stroke"
       d="m 241.33343,356.21026 -2.45308,-2.16178 5.20308,-0.31761 c 2.86169,-0.17469 6.10308,-0.44078 7.20308,-0.59132 l 2,-0.2737 -2.25,2.02215 c -2.43833,2.1914 -4.86195,3.53366 -6.32557,3.50324 -0.50844,-0.0106 -2.02832,-0.99201 -3.37751,-2.18098 z"
       id="path8339"
       inkscape:connector-curvature="0"
       transform="scale(0.26458333)" />
    <path
       style="fill:#ffffff;fill-opacity:1;fill-rule:nonzero;stroke:#ffffff;stroke-width:1;stroke-linecap:butt;stroke-linejoin:miter;stroke-miterlimit:4;stroke-dasharray:none;stroke-dashoffset:0;stroke-opacity:1;paint-order:markers fill stroke"
       d="m 269.38531,350.7091 c -1.39577,-0.61773 -1.38899,-0.62378 1.75,-1.56219 1.73316,-0.51814 3.45934,-1.02998 3.83595,-1.13743 0.37661,-0.10745 0.0391,0.6138 -0.75,1.60279 -1.52094,1.90617 -2.50364,2.12905 -4.83595,1.09683 z"
       id="path8341"
       inkscape:connector-curvature="0"
       transform="scale(0.26458333)" />
    <path
       style="fill:#ffffff;fill-opacity:1;fill-rule:nonzero;stroke:#ffffff;stroke-width:1;stroke-linecap:butt;stroke-linejoin:miter;stroke-miterlimit:4;stroke-dasharray:none;stroke-dashoffset:0;stroke-opacity:1;paint-order:markers fill stroke"
       d="m 262.05099,352.42998 c -0.9529,-0.60263 -0.67414,-0.81277 1.63134,-1.22976 1.81821,-0.32886 1.86958,-0.30087 1.25473,0.68367 -0.68783,1.1014 -1.70398,1.29367 -2.88607,0.54609 z"
       id="path8354"
       inkscape:connector-curvature="0"
       transform="scale(0.26458333)" />
  </g>
  <g
     inkscape:groupmode="layer"
     id="layer18"
     inkscape:label="Lineart"
     style="display:inline">
    <path
       id="path6566"
       style="display:inline;fill:none;stroke:#000000;stroke-width:0.26458332px;stroke-linecap:butt;stroke-linejoin:miter;stroke-opacity:1"
       d="m 80.279322,105.58011 c 0.46315,4.69996 0.47653,9.51039 -0.70578,14.1127 -0.70056,1.25383 -0.2348,2.9609 1.40524,1.8292 1.9225,-0.6584 3.05874,-2.45095 4.80003,-3.34963 1.46613,0.20189 3.14378,0.43499 4.01535,-1.19142 0.93027,-1.57569 2.72336,-1.93549 4.38374,-1.48853 2.37149,0.0345 3.96398,-2.05448 5.43184,-3.63203 0.815878,-1.55664 2.459498,-2.82425 4.289258,-2.25584 1.6244,0.44932 3.36431,-0.36071 3.86304,-2.01797 0.3657,-2.16335 2.41358,-2.79421 4.30273,-2.01419 1.46757,0.24016 3.15051,0.87592 4.53265,0.15366 0.54473,-1.3835 1.14086,-3.05867 3.07205,-2.91129 0.43463,-0.17348 2.65593,0.0766 1.48798,-0.80654 M 110.51198,74.842361 c -0.4646,4.108572 0.60828,8.163835 1.04142,12.225194 0.90036,5.158095 3.57112,10.07277 7.73496,13.310185 0.73887,0.59838 1.52215,1.159 2.13411,1.89508 M 57.858839,92.596799 c -0.278675,0.99445 -0.783351,2.191094 -0.923669,3.21868 -0.337669,0.779132 -0.204375,1.643822 -0.23136,2.466735 0.08413,0.563057 0.440987,1.028279 0.626754,1.55621 m 5.289018,-6.406407 c 0.59895,0.470808 1.13417,1.083451 1.72055,1.57021 0.49022,0.0085 0.99253,0.01302 1.4062,-0.312714 0.5993,-0.32898 1.01375,-0.897633 1.60138,-1.244372 0.43101,-0.366049 1.08679,-0.513504 1.59024,-0.208066 0.36839,0.246153 0.90951,0.608476 1.23098,0.08493 0.28589,-0.420807 0.8312,-0.590982 1.23536,-0.230185 0.37757,0.22811 0.84346,0.159845 1.09034,-0.218154 0.3771,-0.380635 0.80124,-1.122524 1.28195,-1.383758 M 50.85972,90.943069 c 0.283757,0.777613 0.520382,1.572432 0.835218,2.33861 0.391198,0.361534 0.72564,0.886798 1.301497,0.948478 0.459875,-0.06788 0.624608,-0.598551 0.849867,-0.941186 0.292548,-0.295334 0.272733,-0.847839 0.685187,-1.004012 0.480184,-0.135917 0.760806,0.360368 1.09241,0.602371 0.336981,0.21558 0.813104,0.495372 1.179024,0.170175 0.269668,-0.359817 0.747467,-0.695955 1.204879,-0.461378 0.41004,0.262292 0.68586,0.728689 1.19898,0.820717 0.37421,0.155196 0.85981,0.0677 1.07586,-0.297736 0.0615,-0.0745 0.22064,-0.254714 0.29909,-0.104709 m 11.0916,6.8822 c 2.02057,-1.265006 3.84293,-2.850405 5.39136,-4.66034 1.25823,-1.860354 1.83661,-4.087244 3.12377,-5.932186 0.89197,-1.534094 1.48943,-3.212298 2.17583,-4.842401 m -19.075,12.122607 c -1.64812,4.028971 -1.97636,9.561001 1.88989,12.473211 m -3.94779,-15.861566 c -3.461456,2.932809 -4.962579,8.052206 -3.341967,12.334386 1.157087,3.10582 3.878397,5.73833 7.213817,6.28929 2.10259,0.39155 4.64143,0.24281 6.15778,-1.45868 1.36652,-1.60177 0.99125,-3.85079 0.73303,-5.76232 -0.28593,-2.19052 -0.84872,-4.603603 0.25088,-6.664303 0.7652,-1.392597 2.30089,-2.045422 3.6399,-2.745481 0.45203,-0.187253 0.94299,-0.290486 1.43347,-0.26154 M 51.260875,54.951546 c 1.026647,4.451443 -0.405426,6.196517 2.768002,7.2369 m -6.425594,-3.401785 c 1.235214,2.776692 2.19475,6.390026 5.480656,7.370535 M 96.551202,49.715231 c 2.67396,-1.33745 7.560888,-0.732034 4.558128,1.996476 -3.218468,1.30922 -2.692108,2.117425 0.32278,2.517456 4.56762,1.864675 -3.199488,3.773494 1.30748,6.727122 1.35477,1.271669 2.64972,0.367836 3.61606,2.007107 M 71.933142,109.01964 c 2.4411,1.0335 5.16189,1.23022 5.31473,-2.04678 3.80837,-0.59258 4.92011,-3.85064 7.08643,-6.56679 3.55587,-3.74254 8.6188,-5.299211 13.14293,-7.412568 3.595958,-2.541246 4.403058,-7.095738 6.150128,-10.851044 4.01673,-1.367718 4.02066,-5.77357 7.00216,-7.386142 -0.0346,-2.323624 1.66454,-0.363485 1.35385,-2.751955 M 57.018296,92.773075 c -1.484193,3.881978 -3.552692,7.484175 0.299695,10.635735 M 54.695085,49.948109 c -3.772789,-3.440451 -10.002668,-6.478128 -13.258698,-0.589194 -2.712843,3.056036 -12.326542,2.211107 -9.71557,7.959605 3.182421,5.327528 10.830845,4.760431 15.347809,1.601597 1.73667,-0.170769 6.369239,-7.630572 5.448375,-3.157265 m 1.133901,29.671129 c -5.019171,-0.622276 -8.171575,-8.9525 -0.90487,-8.426471 4.180661,-2.556478 12.07227,3.227956 5.33325,5.509797 -1.637597,0.652134 -3.556842,1.230667 -4.42838,2.916674 z m 0,0 c 1.188309,5.57993 6.99522,9.106897 12.51336,7.819112 6.70691,-0.370266 13.08242,-3.867888 16.75418,-9.520245 1.95499,-2.318359 3.24831,-5.388486 5.79675,-7.105034 0.21815,-0.08842 0.4363,-0.176842 0.65446,-0.26526 m -35.907737,-3.96875 c -4.793029,2.551779 -10.355455,7.297761 -8.472028,13.38703 1.266096,3.931758 7.376638,7.241529 10.818166,3.999873 M 97.196442,41.033245 c -8.84216,-6.563259 -22.32344,-5.192979 -31.11898,-0.505229 -4.84154,2.033865 -9.979786,4.456047 -11.565437,9.941567 -3.123291,4.536492 -1.821759,9.98483 -1.468711,14.611513 -1.011314,1.74715 -8.09353,3.53668 -4.816259,5.066911 4.478088,-2.184694 -2.83568,3.861716 1.111511,4.836276 M 94.850312,48.959279 c 0.55795,-5.400364 3.34148,-11.818785 8.999368,-13.369943 6.10311,-0.129993 4.41946,7.584824 7.11678,10.903392 2.72388,3.1489 8.51595,4.380689 8.4543,9.355915 -1.32637,5.658537 -0.99773,11.781417 1.73609,16.999403 -0.8603,4.672343 -7.2917,1.343067 -9.51901,-1.037384 -4.30087,-3.479729 -6.1882,-9.129919 -5.4602,-14.54306 0.6876,-5.999246 2.30313,-12.047139 1.24468,-18.107436 -3.89729,-4.148248 -8.548738,1.907237 -9.440038,5.692797 -0.29685,1.275914 -0.67033,3.184181 -0.10816,4.484291"
       inkscape:connector-curvature="0" />
  </g>
  <g
     inkscape:groupmode="layer"
     id="layer14"
     inkscape:label="Sunglasses"
     style="display:inline"
     sodipodi:insensitive="true">
    <path
       style="fill:none;stroke:#000000;stroke-width:0.26458332px;stroke-linecap:butt;stroke-linejoin:miter;stroke-opacity:1"
       d="m 46.270209,62.613557 c 13.665911,-9.883637 25.268812,-7.089615 43.046767,-8.121383 2.278205,-0.150539 4.563498,1.141506 5.968373,2.971715 1.670599,2.176384 2.096231,5.113767 -0.215436,7.291342 -4.947547,5.773176 -13.931,7.401961 -20.683875,4.006656 -2.850537,-3.197782 -3.491334,-10.370712 -9.098998,-9.608949 -4.721791,3.112736 -6.711058,9.434589 -12.189677,11.845528 -2.669456,1.996255 -9.765579,3.069457 -8.657843,-2.144452 0.541531,-2.09736 1.618443,-4.063816 1.830721,-6.240453 z"
       id="path6001"
       inkscape:connector-curvature="0"
       sodipodi:nodetypes="ccsccccccc" />
    <path
       style="fill:url(#linearGradient8573);fill-opacity:1;fill-rule:nonzero;stroke:#ffffff;stroke-width:1.00157475;stroke-linecap:butt;stroke-linejoin:miter;stroke-miterlimit:4;stroke-dasharray:none;stroke-dashoffset:0;stroke-opacity:1;paint-order:markers fill stroke"
       d="m 176.01179,273.26234 c -5.48123,-1.55753 -7.68651,-4.34916 -7.58513,-9.60189 0.0433,-2.24559 0.80682,-5.20036 3.03608,-11.75 1.638,-4.8125 3.25313,-10.15197 3.58916,-11.86549 l 0.61097,-3.1155 4.81182,-3.17463 c 14.37525,-9.48415 28.83839,-16.003 43.97876,-19.82219 17.73198,-4.47292 32.13523,-5.62717 78.58306,-6.2975 12.2375,-0.17662 25.4,-0.47167 29.25,-0.65567 8.77362,-0.41933 12.08013,0.005 16.5,2.11989 9.7687,4.67322 16.18136,14.17412 15.67039,23.21703 -0.26022,4.60524 -2.07018,8.1073 -6.77464,13.10818 -5.11718,5.43959 -11.28146,10.00042 -17.89575,13.2407 -10.18537,4.98972 -18.13177,6.87012 -29.25,6.92158 -10.0902,0.0467 -18.78051,-1.6493 -26.27918,-5.12865 -3.73312,-1.73215 -5.05385,-3.59012 -10.9802,-15.44663 -6.87898,-13.76238 -10.09734,-17.91671 -16.03126,-20.69353 -2.6038,-1.21847 -3.95134,-1.52762 -6.85103,-1.57176 -3.3109,-0.0504 -3.80837,0.0818 -6.01025,1.59669 -4.11803,2.83328 -9.36304,8.44771 -17.57932,18.81748 -8.96308,11.3123 -15.10115,17.69821 -20.09692,20.90836 -5.98776,3.84758 -12.80395,7.24736 -16.67184,8.31558 -4.83998,1.3367 -11.04365,1.72505 -14.02472,0.87795 z"
       id="path8392"
       inkscape:connector-curvature="0"
       transform="scale(0.26458333)" />
  </g>
</svg>
