<?xml version="1.0" encoding="UTF-8" standalone="no"?>
<!-- Created with Inkscape (http://www.inkscape.org/) -->

<svg
   xmlns:dc="http://purl.org/dc/elements/1.1/"
   xmlns:cc="http://creativecommons.org/ns#"
   xmlns:rdf="http://www.w3.org/1999/02/22-rdf-syntax-ns#"
   xmlns:svg="http://www.w3.org/2000/svg"
   xmlns="http://www.w3.org/2000/svg"
   xmlns:sodipodi="http://sodipodi.sourceforge.net/DTD/sodipodi-0.dtd"
   xmlns:inkscape="http://www.inkscape.org/namespaces/inkscape"
   width="253"
   height="257"
   viewBox="0 0 66.939582 67.997914"
   version="1.1"
   id="svg8"
   sodipodi:docname="logo.svg"
   inkscape:version="0.92.3 (2405546, 2018-03-11)">
  <defs
     id="defs2">
    <clipPath
       clipPathUnits="userSpaceOnUse"
       id="clipPath4740">
      <circle
         r="33.147911"
         style="fill:#ffffff;stroke-width:0.2622622"
         cy="34.083347"
         cx="33.531246"
         id="circle4742" />
    </clipPath>
  </defs>
  <sodipodi:namedview
     id="base"
     pagecolor="#ffffff"
     bordercolor="#666666"
     borderopacity="1.0"
     inkscape:pageopacity="0.0"
     inkscape:pageshadow="2"
     inkscape:zoom="2.7608595"
     inkscape:cx="112.49192"
     inkscape:cy="140.42533"
     inkscape:document-units="px"
     inkscape:current-layer="layer1"
     showgrid="false"
     units="px"
     inkscape:pagecheckerboard="true"
     showborder="true"
     borderlayer="false"
     showguides="true"
     inkscape:window-width="1920"
     inkscape:window-height="1001"
     inkscape:window-x="-9"
     inkscape:window-y="-9"
     inkscape:window-maximized="1" />
  <metadata
     id="metadata5">
    <rdf:RDF>
      <cc:Work
         rdf:about="">
        <dc:format>image/svg+xml</dc:format>
        <dc:type
           rdf:resource="http://purl.org/dc/dcmitype/StillImage" />
        <dc:title></dc:title>
      </cc:Work>
    </rdf:RDF>
  </metadata>
  <g
     inkscape:label="Circle"
     inkscape:groupmode="layer"
     id="layer1"
     transform="translate(0,-229.0021)"
     style="display:inline">
    <circle
       id="path3721"
       cx="33.531246"
       cy="263.08545"
       style="fill:#ffffff;stroke-width:0.2622622"
       r="33.147911" />
  </g>
  <g
     inkscape:groupmode="layer"
     id="layer7"
     inkscape:label="Tongue"
     style="display:inline">
    <g
       id="g4723">
      <path
         style="fill:#d81159;fill-opacity:1;stroke:#d81159;stroke-width:0.0711777;stroke-linecap:round;stroke-linejoin:round;stroke-miterlimit:4;stroke-dasharray:none;stroke-dashoffset:0;stroke-opacity:1;paint-order:markers fill stroke"
         d="m 30.522664,50.034989 h 6.005661 v 5.372312 h -6.005661 z"
         id="rect4618"
         inkscape:connector-curvature="0" />
      <path
         style="fill:#d81159;fill-opacity:1;stroke:#d81159;stroke-width:0.33497915;stroke-linecap:butt;stroke-linejoin:round;stroke-miterlimit:4;stroke-dasharray:none;stroke-dashoffset:0;stroke-opacity:1;paint-order:markers fill stroke"
         d="m 36.380526,55.362737 a 2.8550334,2.4634087 0 0 1 -1.427517,2.133374 2.8550334,2.4634087 0 0 1 -2.855033,0 2.8550334,2.4634087 0 0 1 -1.427517,-2.133375"
         id="path4620"
         inkscape:connector-curvature="0" />
      <rect
         y="49.007931"
         x="32.527031"
         height="1.6083558"
         width="1.8296454"
         id="rect4716"
         style="fill:#d81159;fill-opacity:1;stroke:#d81159;stroke-width:0.51051891;stroke-linecap:butt;stroke-linejoin:miter;stroke-miterlimit:4;stroke-dasharray:none;stroke-dashoffset:0;stroke-opacity:1;paint-order:markers fill stroke" />
    </g>
  </g>
  <g
     inkscape:groupmode="layer"
     id="layer4"
     inkscape:label="Mouth"
     style="display:inline">
    <path
       id="path4571"
       style="fill:none;stroke:#d81159;stroke-width:1.40297377;stroke-linecap:round;stroke-linejoin:round;stroke-miterlimit:4;stroke-dasharray:none;stroke-opacity:1"
       d="m 33.525493,38.425156 v 9.248613 c 1.585857,4.130773 9.047133,5.930815 13.923738,-0.508165 M 33.525493,38.425156 v 9.248613 c -1.585857,4.130773 -9.047132,5.930815 -13.923737,-0.508165"
       inkscape:connector-curvature="0" />
  </g>
  <g
     inkscape:groupmode="layer"
     id="layer2"
     inkscape:label="Left Eye"
     style="display:inline"
     transform="translate(0,0.26458333)">
    <circle
       transform="translate(0,-0.26458333)"
       style="display:inline;fill:#d81159;fill-opacity:1;stroke-width:0.21044606"
       id="path3728"
       cx="20.947266"
       cy="24.390171"
       r="4.2089214" />
  </g>
  <g
     inkscape:label="Right Eye"
     id="g4539"
     inkscape:groupmode="layer"
     style="display:inline"
     transform="translate(0,0.26458333)">
    <circle
       transform="translate(0,-0.26458333)"
       r="4.2089214"
       cy="24.390171"
       cx="46.103725"
       id="circle4537"
       style="display:inline;fill:#d81159;fill-opacity:1;stroke-width:0.21044606" />
  </g>
  <g
     inkscape:groupmode="layer"
     id="layer3"
     inkscape:label="Nose"
     style="display:inline"
     transform="translate(0,0.26458333)">
    <path
       style="display:inline;fill:#d81159;fill-opacity:1;stroke-width:0.19009475"
       d="m 39.502089,31.89902 a 4.2771324,4.2771324 0 0 0 -1.845192,-1.036483 4.2771324,4.2771324 0 0 0 -4.131364,1.106974 l 6.048779,6.048778 a 4.2771324,4.2771324 0 0 0 1.106973,-4.131363 4.2771324,4.2771324 0 0 0 -1.179196,-1.987906 z m -5.976634,0.07057 a 4.2771324,4.2771324 0 0 0 -4.131363,-1.106974 4.2771324,4.2771324 0 0 0 -3.02439,3.024389 4.2771324,4.2771324 0 0 0 1.106975,4.131363 l 6.048778,6.048779 6.048779,-6.048779 z"
       id="rect4546"
       inkscape:connector-curvature="0"
       transform="translate(0,-0.26458333)" />
  </g>
  <g
     inkscape:groupmode="layer"
     id="layer8"
     inkscape:label="Ears"
     style="display:inline">
    <path
       style="fill:#d81159;fill-opacity:1;stroke:#d81159;stroke-width:0.26458332px;stroke-linecap:butt;stroke-linejoin:miter;stroke-opacity:1"
       d="M 43.70016,2.4476778 C 62.987463,34.951657 51.730599,36.938592 57.596041,41.260318 67.721552,46.723384 78.137163,36.088109 76.57111,28.993606 73.175146,11.237674 51.360095,5.7355615 43.70016,2.4476778 Z"
       id="path4728"
       inkscape:connector-curvature="0"
       sodipodi:nodetypes="cccc"
       clip-path="url(#clipPath4740)"
       transform="translate(-0.24809262,0.15880672)" />
    <path
       clip-path="url(#clipPath4740)"
       sodipodi:nodetypes="cccc"
       inkscape:connector-curvature="0"
       id="path4744"
       d="M 43.70016,2.4476778 C 62.987463,34.951657 51.730599,36.938592 57.596041,41.260318 67.721552,46.723384 78.137163,36.088109 76.57111,28.993606 73.175146,11.237674 51.360095,5.7355615 43.70016,2.4476778 Z"
       style="fill:#d81159;fill-opacity:1;stroke:#d81159;stroke-width:0.26458332px;stroke-linecap:butt;stroke-linejoin:miter;stroke-opacity:1"
       transform="matrix(-1,0,0,1,67.250657,0.15880672)" />
  </g>
</svg>
